{"glyphs":{"0":{"ha":833,"x_min":0,"x_max":0,"o":"m 417 -17 b 50 485 164 -17 50 168 b 417 986 50 801 164 986 b 783 485 669 986 783 801 b 417 -17 783 168 669 -17 m 417 129 b 599 399 550 129 599 232 l 599 571 b 417 840 599 738 550 840 b 235 571 283 840 235 738 l 235 399 b 417 129 235 232 283 129 m 417 403 b 331 469 353 403 331 432 l 331 500 b 417 567 331 538 353 567 b 503 500 481 567 503 538 l 503 469 b 417 403 503 432 481 403 "},"1":{"ha":833,"x_min":0,"x_max":0,"o":"m 126 0 l 126 149 l 393 149 l 393 838 l 381 838 l 169 588 l 56 683 l 296 969 l 575 969 l 575 149 l 794 149 l 794 0 "},"2":{"ha":833,"x_min":0,"x_max":0,"o":"m 764 0 l 81 0 l 81 169 l 392 435 b 544 674 494 524 544 592 l 544 688 b 397 829 544 779 489 829 b 222 685 296 829 246 765 l 64 744 b 413 986 106 872 211 986 b 738 699 619 986 738 865 b 490 324 738 540 631 436 l 279 153 l 764 153 "},"3":{"ha":833,"x_min":0,"x_max":0,"o":"m 378 578 b 547 700 493 578 547 631 l 547 710 b 399 836 547 789 490 836 b 196 719 311 836 243 793 l 78 825 b 404 986 146 915 239 986 b 738 733 601 986 738 889 b 549 513 738 610 651 533 l 549 506 b 756 268 663 485 756 406 b 389 -17 756 97 611 -17 b 43 163 203 -17 106 69 l 178 267 b 392 133 224 189 281 133 b 565 278 503 133 565 188 l 565 289 b 379 426 565 378 497 426 l 282 426 l 282 578 "},"4":{"ha":833,"x_min":0,"x_max":0,"o":"m 488 0 l 488 188 l 39 188 l 39 343 l 435 969 l 661 969 l 661 329 l 792 329 l 792 188 l 661 188 l 661 0 m 188 329 l 488 329 l 488 792 l 476 792 "},"5":{"ha":833,"x_min":0,"x_max":0,"o":"m 719 811 l 275 811 l 251 486 l 263 486 b 478 624 306 568 364 624 b 774 318 642 624 774 511 b 410 -17 774 125 642 -17 b 71 163 228 -17 131 69 l 203 267 b 413 133 249 192 304 133 b 583 303 524 133 583 199 l 583 314 b 414 476 583 415 521 476 b 253 404 332 476 285 439 l 104 425 l 140 969 l 719 969 "},"6":{"ha":833,"x_min":0,"x_max":0,"o":"m 421 -17 b 64 364 196 -17 64 132 b 417 969 64 642 251 861 l 664 969 b 253 478 432 807 297 678 l 264 475 b 489 618 301 550 364 618 b 776 317 653 618 776 501 b 421 -17 776 121 636 -17 m 419 126 b 589 294 529 126 589 188 l 589 311 b 419 478 589 418 528 478 b 251 311 314 478 251 418 l 251 294 b 419 126 251 188 311 126 "},"7":{"ha":833,"x_min":0,"x_max":0,"o":"m 232 0 l 578 821 l 232 821 l 232 643 l 76 643 l 76 969 l 758 969 l 758 811 l 424 0 "},"8":{"ha":833,"x_min":0,"x_max":0,"o":"m 417 -17 b 58 265 186 -17 58 104 b 253 501 58 393 138 471 l 253 513 b 88 735 154 547 88 622 b 417 986 88 883 207 986 b 746 735 626 986 746 883 b 581 513 746 622 679 547 l 581 501 b 775 265 696 471 775 393 b 417 -17 775 104 647 -17 m 417 125 b 586 264 525 125 586 178 l 586 292 b 417 432 586 379 526 432 b 247 292 307 432 247 379 l 247 264 b 417 125 247 178 308 125 m 417 567 b 574 697 518 567 574 617 l 574 717 b 417 844 574 796 518 844 b 260 717 315 844 260 796 l 260 697 b 417 567 260 617 315 567 "},"9":{"ha":833,"x_min":0,"x_max":0,"o":"m 769 606 b 417 0 769 328 582 108 l 169 0 b 581 492 401 163 536 292 l 569 494 b 344 351 532 419 469 351 b 57 653 181 351 57 468 b 413 986 57 849 197 986 b 769 606 638 986 769 838 m 414 492 b 582 658 519 492 582 551 l 582 675 b 414 843 582 782 522 843 b 244 675 304 843 244 782 l 244 658 b 414 492 244 551 306 492 "},"A":{"ha":833,"x_min":0,"x_max":0,"o":"m 624 0 l 556 246 l 268 246 l 201 0 l 18 0 l 290 969 l 543 969 l 817 0 m 418 790 l 407 790 l 300 394 l 525 394 "},"B":{"ha":833,"x_min":0,"x_max":0,"o":"m 111 969 l 449 969 b 735 714 631 969 735 871 b 578 508 735 603 676 538 l 578 501 b 767 271 694 474 767 403 b 483 0 767 110 657 0 l 111 0 m 428 132 b 581 258 529 132 581 167 l 581 304 b 428 429 581 394 529 429 l 289 429 l 289 132 m 404 556 b 549 674 501 556 549 588 l 549 719 b 404 838 549 806 501 838 l 289 838 l 289 556 "},"C":{"ha":833,"x_min":0,"x_max":0,"o":"m 442 -17 b 69 485 189 -17 69 165 b 442 986 69 804 189 986 b 772 726 635 986 731 878 l 606 679 b 439 838 581 769 543 838 b 263 568 314 838 263 735 l 263 401 b 439 132 263 235 314 132 b 606 290 543 132 581 200 l 772 243 b 442 -17 731 92 635 -17 "},"D":{"ha":833,"x_min":0,"x_max":0,"o":"m 101 969 l 403 969 b 776 485 654 969 776 799 b 403 0 776 171 654 0 l 101 0 m 390 146 b 586 401 524 146 586 236 l 586 569 b 390 824 586 733 524 824 l 281 824 l 281 146 "},"E":{"ha":833,"x_min":0,"x_max":0,"o":"m 115 0 l 115 969 l 728 969 l 728 819 l 297 819 l 297 567 l 713 567 l 713 417 l 297 417 l 297 150 l 728 150 l 728 0 "},"F":{"ha":833,"x_min":0,"x_max":0,"o":"m 115 0 l 115 969 l 749 969 l 749 819 l 297 819 l 297 567 l 704 567 l 704 417 l 297 417 l 297 0 "},"G":{"ha":833,"x_min":0,"x_max":0,"o":"m 585 135 l 574 135 b 356 -17 542 56 479 -17 b 57 478 160 -17 57 165 b 419 986 57 807 174 986 b 747 726 614 986 708 875 l 581 679 b 418 838 556 763 521 838 b 250 568 297 838 250 735 l 250 413 b 426 131 250 244 294 131 b 585 296 529 131 585 200 l 585 375 l 408 375 l 408 507 l 747 507 l 747 0 l 585 0 "},"H":{"ha":833,"x_min":0,"x_max":0,"o":"m 558 417 l 275 417 l 275 0 l 93 0 l 93 969 l 275 969 l 275 567 l 558 567 l 558 969 l 740 969 l 740 0 l 558 0 "},"I":{"ha":833,"x_min":0,"x_max":0,"o":"m 108 0 l 108 136 l 326 136 l 326 833 l 108 833 l 108 969 l 725 969 l 725 833 l 507 833 l 507 136 l 725 136 l 725 0 "},"J":{"ha":833,"x_min":0,"x_max":0,"o":"m 697 969 l 697 265 b 385 -17 697 93 574 -17 b 68 238 201 -17 97 83 l 239 274 b 385 133 256 193 294 133 b 514 286 467 133 514 182 l 514 819 l 186 819 l 186 969 "},"K":{"ha":833,"x_min":0,"x_max":0,"o":"m 385 425 l 283 292 l 283 0 l 101 0 l 101 969 l 283 969 l 283 533 l 292 533 l 404 694 l 608 969 l 814 969 l 510 561 l 828 0 l 622 0 "},"L":{"ha":833,"x_min":0,"x_max":0,"o":"m 139 0 l 139 969 l 321 969 l 321 150 l 750 150 l 750 0 "},"M":{"ha":833,"x_min":0,"x_max":0,"o":"m 608 449 l 617 729 l 604 729 l 417 231 l 229 729 l 217 729 l 225 449 l 225 0 l 67 0 l 67 969 l 283 969 l 418 613 l 428 613 l 564 969 l 767 969 l 767 0 l 608 0 "},"N":{"ha":833,"x_min":0,"x_max":0,"o":"m 263 696 l 249 696 l 249 0 l 93 0 l 93 969 l 317 969 l 571 274 l 585 274 l 585 969 l 740 969 l 740 0 l 517 0 "},"O":{"ha":833,"x_min":0,"x_max":0,"o":"m 417 -17 b 50 485 164 -17 50 168 b 417 986 50 801 164 986 b 783 485 669 986 783 801 b 417 -17 783 168 669 -17 m 417 132 b 590 403 546 132 590 235 l 590 568 b 417 838 590 735 546 838 b 243 568 288 838 243 735 l 243 401 b 417 132 243 235 288 132 "},"P":{"ha":833,"x_min":0,"x_max":0,"o":"m 111 0 l 111 969 l 479 969 b 771 669 667 969 771 854 b 479 369 771 486 667 369 l 293 369 l 293 0 m 293 518 l 442 518 b 579 643 539 518 579 557 l 579 696 b 442 821 579 782 539 821 l 293 821 "},"Q":{"ha":833,"x_min":0,"x_max":0,"o":"m 717 -254 l 529 -254 b 338 -64 392 -254 338 -178 l 338 -10 b 50 485 140 25 50 203 b 417 986 50 801 164 986 b 783 485 669 986 783 801 b 496 -10 783 203 693 25 l 496 -122 l 717 -122 m 417 132 b 590 403 546 132 590 235 l 590 568 b 417 838 590 735 546 838 b 243 568 288 838 243 735 l 243 401 b 417 132 243 235 288 132 "},"R":{"ha":833,"x_min":0,"x_max":0,"o":"m 293 0 l 111 0 l 111 969 l 479 969 b 771 669 667 969 771 854 b 581 397 771 528 701 424 l 788 0 l 588 0 l 403 376 l 293 376 m 442 518 b 579 643 539 518 579 557 l 579 696 b 442 821 579 782 539 821 l 293 821 l 293 518 "},"S":{"ha":833,"x_min":0,"x_max":0,"o":"m 406 -17 b 49 140 240 -17 122 46 l 158 254 b 411 132 231 171 315 132 b 583 278 522 132 583 185 b 438 408 583 354 543 392 l 335 425 b 86 699 156 456 86 564 b 426 986 86 883 215 986 b 756 851 578 986 689 935 l 649 738 b 428 838 597 799 525 838 b 269 707 324 838 269 793 b 417 579 269 633 310 597 l 518 561 b 767 290 685 531 767 435 b 406 -17 767 110 640 -17 "},"T":{"ha":833,"x_min":0,"x_max":0,"o":"m 507 819 l 507 0 l 326 0 l 326 819 l 35 819 l 35 969 l 799 969 l 799 819 "},"U":{"ha":833,"x_min":0,"x_max":0,"o":"m 268 969 l 268 365 b 417 132 268 222 276 132 b 565 365 557 132 565 222 l 565 969 l 747 969 l 747 393 b 417 -17 747 121 693 -17 b 86 393 140 -17 86 121 l 86 969 "},"V":{"ha":833,"x_min":0,"x_max":0,"o":"m 289 0 l 24 969 l 224 969 l 344 479 l 415 174 l 425 174 l 497 479 l 619 969 l 810 969 l 544 0 "},"W":{"ha":833,"x_min":0,"x_max":0,"o":"m 90 0 l 25 969 l 182 969 l 213 411 l 225 181 l 238 181 l 335 746 l 504 746 l 601 181 l 614 181 l 626 411 l 657 969 l 808 969 l 743 0 l 508 0 l 422 549 l 411 549 l 325 0 "},"X":{"ha":833,"x_min":0,"x_max":0,"o":"m 814 0 l 608 0 l 503 193 l 418 363 l 407 363 l 319 193 l 211 0 l 19 0 l 304 500 l 38 969 l 244 969 l 333 806 l 418 638 l 428 638 l 514 806 l 607 969 l 799 969 l 531 497 "},"Y":{"ha":833,"x_min":0,"x_max":0,"o":"m 326 0 l 326 354 l 11 969 l 214 969 l 326 736 l 414 538 l 424 538 l 513 736 l 626 969 l 822 969 l 507 354 l 507 0 "},"Z":{"ha":833,"x_min":0,"x_max":0,"o":"m 767 0 l 67 0 l 67 160 l 549 819 l 83 819 l 83 969 l 749 969 l 749 810 l 268 150 l 767 150 "},"&":{"ha":833,"x_min":0,"x_max":0,"o":"m 292 -17 b 24 260 119 -17 24 110 b 193 531 24 371 75 465 b 103 744 135 607 103 669 b 368 986 103 885 217 986 b 622 821 501 986 593 906 l 496 754 b 368 850 475 813 428 850 b 261 747 304 850 261 807 l 261 739 b 372 543 261 685 289 647 l 464 426 l 542 318 l 550 318 b 565 550 561 383 565 481 l 797 550 l 797 415 l 699 415 b 643 214 688 347 674 286 l 821 0 l 628 0 l 514 138 l 504 138 b 292 -17 488 43 408 -17 m 336 124 b 464 190 389 124 436 143 l 267 438 b 192 274 208 389 192 335 l 192 267 b 336 124 192 175 249 124 "},"@":{"ha":833,"x_min":0,"x_max":0,"o":"m 624 -156 l 469 -156 b 63 421 169 -156 63 33 b 418 986 63 846 189 986 b 757 643 653 986 757 838 l 757 126 l 624 126 l 624 210 l 614 210 b 481 111 594 147 550 111 b 304 408 372 111 304 203 b 481 706 304 614 372 706 b 614 607 550 706 594 668 l 624 607 l 624 643 b 425 867 624 800 550 867 b 203 497 281 867 203 776 l 203 318 b 469 -36 203 103 269 -36 l 624 -36 m 535 218 b 624 308 590 218 624 251 l 624 508 b 535 599 624 565 590 599 b 444 453 476 599 444 563 l 444 364 b 535 218 444 254 476 218 "},"-":{"ha":833,"x_min":0,"x_max":0,"o":"m 201 336 l 201 510 l 632 510 l 632 336 "},"_":{"ha":833,"x_min":0,"x_max":0,"o":"m 83 -257 l 83 -108 l 750 -108 l 750 -257 "},".":{"ha":833,"x_min":0,"x_max":0,"o":"m 417 -15 b 283 90 321 -15 283 32 l 283 132 b 417 238 283 190 321 238 b 550 132 513 238 550 190 l 550 90 b 417 -15 550 32 513 -15 "},":":{"ha":833,"x_min":0,"x_max":0,"o":"m 417 478 b 283 583 321 478 283 525 l 283 625 b 417 731 283 683 321 731 b 550 625 513 731 550 683 l 550 583 b 417 478 550 525 513 478 m 417 -15 b 283 90 321 -15 283 32 l 283 132 b 417 238 283 190 321 238 b 550 132 513 238 550 190 l 550 90 b 417 -15 550 32 513 -15 "},",":{"ha":833,"x_min":0,"x_max":0,"o":"m 328 226 l 567 226 l 385 -206 l 250 -206 "},";":{"ha":833,"x_min":0,"x_max":0,"o":"m 417 478 b 283 583 321 478 283 525 l 283 625 b 417 731 283 683 321 731 b 550 625 513 731 550 683 l 550 583 b 417 478 550 525 513 478 m 328 226 l 567 226 l 385 -206 l 250 -206 "},"!":{"ha":833,"x_min":0,"x_max":0,"o":"m 388 333 l 319 688 l 319 969 l 514 969 l 514 688 l 446 333 m 417 -15 b 290 85 325 -15 290 29 l 290 124 b 417 224 290 179 325 224 b 543 124 508 224 543 179 l 543 85 b 417 -15 543 29 508 -15 "},"?":{"ha":833,"x_min":0,"x_max":0,"o":"m 301 317 l 301 531 b 536 692 446 536 536 581 l 536 711 b 403 833 536 794 481 833 b 242 701 317 833 261 778 l 92 763 b 408 986 125 878 221 986 b 725 708 599 986 725 874 b 471 428 725 546 603 451 l 471 317 m 390 -15 b 264 85 299 -15 264 29 l 264 124 b 390 224 264 179 299 224 b 517 124 482 224 517 179 l 517 85 b 390 -15 517 29 482 -15 "},"(":{"ha":833,"x_min":0,"x_max":0,"o":"m 254 432 b 543 1056 254 703 386 939 l 721 1056 b 407 499 553 936 407 733 l 407 365 b 721 -192 407 131 553 -72 l 543 -192 b 254 432 386 -75 254 161 "},")":{"ha":833,"x_min":0,"x_max":0,"o":"m 579 432 b 290 -192 579 161 447 -75 l 113 -192 b 426 365 281 -72 426 131 l 426 499 b 113 1056 426 733 281 936 l 290 1056 b 579 432 447 939 579 703 "},"/":{"ha":833,"x_min":0,"x_max":0,"o":"m 108 -192 l 565 1056 l 725 1056 l 268 -192 "},"%":{"ha":833,"x_min":0,"x_max":0,"o":"m 231 478 b 17 732 99 478 17 572 b 231 986 17 892 99 986 b 444 732 363 986 444 892 b 231 478 444 572 363 478 m 231 585 b 315 700 289 585 315 629 l 315 764 b 231 879 315 835 289 879 b 146 764 172 879 146 835 l 146 700 b 231 585 146 629 172 585 m 683 969 l 824 969 l 610 553 l 471 553 m 224 417 l 363 417 l 150 0 l 10 0 m 603 -17 b 389 238 471 -17 389 78 b 603 492 389 397 471 492 b 817 238 735 492 817 397 b 603 -17 817 78 735 -17 m 603 90 b 688 206 661 90 688 135 l 688 269 b 603 385 688 340 661 385 b 518 269 544 385 518 340 l 518 206 b 603 90 518 135 544 90 "},"|":{"ha":833,"x_min":0,"x_max":0,"o":"m 340 -192 l 340 1056 l 493 1056 l 493 -192 "},"#":{"ha":833,"x_min":0,"x_max":0,"o":"m 175 279 l 15 279 l 15 413 l 200 413 l 224 557 l 68 557 l 68 690 l 249 690 l 297 969 l 442 969 l 271 0 l 126 0 m 563 969 l 707 969 l 658 690 l 818 690 l 818 557 l 633 557 l 610 413 l 765 413 l 765 279 l 585 279 l 536 0 l 392 0 "},"~":{"ha":833,"x_min":0,"x_max":0,"o":"m 568 303 b 404 351 515 303 463 322 b 281 397 357 375 319 397 b 185 303 233 397 208 363 l 57 350 b 265 544 85 464 158 544 b 429 496 318 544 371 525 b 553 450 476 472 514 450 b 649 544 600 450 625 485 l 776 497 b 568 303 749 383 675 303 "},"$":{"ha":833,"x_min":0,"x_max":0,"o":"m 363 -15 b 51 140 219 -4 117 54 l 161 253 b 372 136 222 185 292 146 l 372 424 l 340 429 b 82 704 158 461 82 568 b 363 982 82 860 185 961 l 363 1126 l 499 1126 l 499 983 b 763 847 618 969 703 921 l 653 735 b 489 828 611 785 557 817 l 489 564 l 524 558 b 782 286 704 525 782 424 b 499 -10 782 131 681 18 l 499 -157 l 363 -157 m 253 710 b 372 588 253 642 288 607 l 372 832 b 253 710 292 821 253 779 m 613 275 b 489 401 613 349 575 383 l 489 138 b 613 275 571 151 613 200 "}}}
